<svg xmlns="http://www.w3.org/2000/svg" viewBox="0 0 441 441" class="css-z1c7hf">
    <path
        d="M315.708 281.197l-10.062-28.595-13.251-37.652-9.586-27.249-12.548-35.661-14.577-41.421h-70.705l-11.286 32.074-10.063 28.595-49.974 142.015h46.633l14.629-41.453h70.718l-12.549-35.662h-45.672L197 208.94l20.021-56.9 3.309-9.418 3.31 9.418 56.72 161.23.013.033h46.632z">
    </path>
    <path
        d="M412.554 112.354a8.996 8.996 0 00-12.252-3.416 8.994 8.994 0 00-3.416 12.252A202.438 202.438 0 1118.767 238.032a202.44 202.44 0 01155.295-214.66 202.44 202.44 0 01140.257 17.7 27.521 27.521 0 109.38-15.388 220.434 220.434 0 1088.855 86.671z">
    </path>
</svg>